<svg width="31" height="30" viewBox="0 0 31 30" fill="none" xmlns="http://www.w3.org/2000/svg">
<path d="M11.75 21.5625V22.8212C11.7501 23.3139 11.6531 23.8017 11.4645 24.2568C11.276 24.7119 10.9996 25.1255 10.6513 25.4737L9.875 26.25H21.125L20.3487 25.4737C20.0004 25.1255 19.724 24.7119 19.5355 24.2568C19.3469 23.8017 19.2499 23.3139 19.25 22.8212V21.5625M26.75 6.5625V18.75C26.75 19.4959 26.4537 20.2113 25.9262 20.7387C25.3988 21.2662 24.6834 21.5625 23.9375 21.5625H7.0625C6.31658 21.5625 5.60121 21.2662 5.07376 20.7387C4.54632 20.2113 4.25 19.4959 4.25 18.75V6.5625M26.75 6.5625C26.75 5.81658 26.4537 5.10121 25.9262 4.57376C25.3988 4.04632 24.6834 3.75 23.9375 3.75H7.0625C6.31658 3.75 5.60121 4.04632 5.07376 4.57376C4.54632 5.10121 4.25 5.81658 4.25 6.5625M26.75 6.5625V15C26.75 15.7459 26.4537 16.4613 25.9262 16.9887C25.3988 17.5162 24.6834 17.8125 23.9375 17.8125H7.0625C6.31658 17.8125 5.60121 17.5162 5.07376 16.9887C4.54632 16.4613 4.25 15.7459 4.25 15V6.5625" stroke="#6A6A6A" stroke-width="1.25" stroke-linecap="round" stroke-linejoin="round"/>
</svg>
