<svg width="34" height="20" viewBox="0 0 34 20" fill="none" xmlns="http://www.w3.org/2000/svg">
<mask id="path-1-inside-1_1_2418" fill="white">
<path d="M0.809998 4C0.809998 1.79086 2.60086 0 4.81 0H29.81C32.0191 0 33.81 1.79086 33.81 4V16C33.81 18.2091 32.0191 20 29.81 20H4.81C2.60086 20 0.809998 18.2091 0.809998 16V4Z"/>
</mask>
<path d="M0.809998 4C0.809998 1.79086 2.60086 0 4.81 0H29.81C32.0191 0 33.81 1.79086 33.81 4V16C33.81 18.2091 32.0191 20 29.81 20H4.81C2.60086 20 0.809998 18.2091 0.809998 16V4Z" fill="#F5F5F5"/>
<path d="M4.81 1H29.81V-1H4.81V1ZM32.81 4V16H34.81V4H32.81ZM29.81 19H4.81V21H29.81V19ZM1.81 16V4H-0.190002V16H1.81ZM4.81 19C3.15314 19 1.81 17.6569 1.81 16H-0.190002C-0.190002 18.7614 2.04857 21 4.81 21V19ZM32.81 16C32.81 17.6569 31.4669 19 29.81 19V21C32.5714 21 34.81 18.7614 34.81 16H32.81ZM29.81 1C31.4669 1 32.81 2.34315 32.81 4H34.81C34.81 1.23858 32.5714 -1 29.81 -1V1ZM4.81 -1C2.04857 -1 -0.190002 1.23858 -0.190002 4H1.81C1.81 2.34315 3.15314 1 4.81 1V-1Z" fill="#E5E5E5" mask="url(#path-1-inside-1_1_2418)"/>
<path d="M10.8159 10.0508H12.0287V8.83203H10.8159V10.0508ZM10.8159 10.6602V11.3574C10.8159 11.709 10.6889 12.0098 10.435 12.2598C10.1811 12.5098 9.87445 12.6348 9.51508 12.6348C9.15961 12.6348 8.85492 12.5098 8.60101 12.2598C8.35101 12.0059 8.22601 11.6992 8.22601 11.3398C8.22601 10.9883 8.35101 10.6855 8.60101 10.4316C8.85492 10.1777 9.1557 10.0508 9.50336 10.0508H10.2065V8.83203H9.50336C9.1557 8.83203 8.85492 8.70508 8.60101 8.45117C8.35101 8.19727 8.22601 7.89258 8.22601 7.53711C8.22601 7.18164 8.35101 6.87891 8.60101 6.62891C8.85492 6.375 9.15961 6.24805 9.51508 6.24805C9.87445 6.24805 10.1811 6.37305 10.435 6.62305C10.6889 6.87305 10.8159 7.17383 10.8159 7.52539V8.22266H12.0287V7.52539C12.0287 7.17383 12.1557 6.87305 12.4096 6.62305C12.6635 6.37305 12.9702 6.24805 13.3295 6.24805C13.6889 6.24805 13.9936 6.375 14.2436 6.62891C14.4936 6.87891 14.6186 7.18164 14.6186 7.53711C14.6186 7.89258 14.4936 8.19727 14.2436 8.45117C13.9936 8.70508 13.6928 8.83203 13.3412 8.83203H12.6381V10.0508H13.3412C13.6928 10.0508 13.9936 10.1777 14.2436 10.4316C14.4936 10.6855 14.6186 10.9883 14.6186 11.3398C14.6186 11.6992 14.4936 12.0059 14.2436 12.2598C13.9936 12.5098 13.6889 12.6348 13.3295 12.6348C12.9702 12.6348 12.6635 12.5098 12.4096 12.2598C12.1557 12.0098 12.0287 11.709 12.0287 11.3574V10.6602H10.8159ZM10.2065 8.22266V7.53711C10.2065 7.34961 10.1381 7.18945 10.0014 7.05664C9.86859 6.91992 9.70648 6.85156 9.51508 6.85156C9.33148 6.85156 9.17133 6.91992 9.03461 7.05664C8.90179 7.18945 8.83539 7.34961 8.83539 7.53711C8.83539 7.72461 8.90179 7.88672 9.03461 8.02344C9.17133 8.15625 9.33344 8.22266 9.52094 8.22266H10.2065ZM10.2065 10.6602H9.52094C9.33344 10.6602 9.17133 10.7285 9.03461 10.8652C8.90179 10.998 8.83539 11.1562 8.83539 11.3398C8.83539 11.5312 8.90179 11.6953 9.03461 11.832C9.17133 11.9648 9.33344 12.0312 9.52094 12.0312C9.70844 12.0312 9.86859 11.9648 10.0014 11.832C10.1381 11.6953 10.2065 11.5332 10.2065 11.3457V10.6602ZM12.6381 8.22266H13.3295C13.5131 8.22266 13.6713 8.15625 13.8041 8.02344C13.9409 7.88672 14.0092 7.72461 14.0092 7.53711C14.0092 7.34961 13.9428 7.18945 13.81 7.05664C13.6772 6.91992 13.5151 6.85156 13.3237 6.85156C13.1362 6.85156 12.9741 6.91992 12.8373 7.05664C12.7045 7.18945 12.6381 7.34961 12.6381 7.53711V8.22266ZM12.6381 10.6602V11.3457C12.6381 11.5332 12.7045 11.6953 12.8373 11.832C12.9741 11.9648 13.1362 12.0312 13.3237 12.0312C13.5151 12.0312 13.6772 11.9648 13.81 11.832C13.9428 11.6953 14.0092 11.5312 14.0092 11.3398C14.0092 11.1562 13.9409 10.998 13.8041 10.8652C13.6713 10.7285 13.5131 10.6602 13.3295 10.6602H12.6381Z" fill="#737373"/>
<path d="M20.4789 6.20996H21.4702V9.45215L24.5512 6.20996H25.7084L22.8715 9.18848L25.7914 13.5H24.6L22.2221 9.84766L21.4702 10.6484V13.5H20.4789V6.20996Z" fill="#737373"/>
</svg>
